<svg width="21" height="19" viewBox="0 0 21 19" fill="none" xmlns="http://www.w3.org/2000/svg">
<path d="M0.846802 9.43916C0.846802 7.85625 2.13 6.57306 3.7129 6.57306H13.3925C14.9754 6.57306 16.2586 7.85625 16.2586 9.43916C16.2586 11.0221 14.9754 12.3053 13.3925 12.3053H3.7129C2.13 12.3053 0.846802 11.0221 0.846802 9.43916Z" fill="#C4C4C4"/>
<path d="M9.92634 1.37753C11.0442 0.254918 12.8617 0.254918 13.9796 1.37753L20.0793 7.50296C21.1905 8.6189 21.1905 10.4232 20.0793 11.5392C18.9614 12.6618 17.1439 12.6618 16.026 11.5392L9.92634 5.41372C8.8151 4.29778 8.8151 2.49346 9.92634 1.37753Z" fill="#C4C4C4"/>
<path d="M9.99152 17.6225C8.88028 16.5065 8.88028 14.7022 9.99152 13.5863L16.0903 7.46179C17.2081 6.33918 19.0256 6.33918 20.1435 7.46179C21.2547 8.57772 21.2547 10.382 20.1435 11.498L14.0448 17.6225C12.9269 18.7451 11.1094 18.7451 9.99152 17.6225Z" fill="#C4C4C4"/>
<path d="M16.0103 7.43583C17.1423 6.32754 18.9597 6.3508 20.0632 7.48743C21.1602 8.61731 21.1375 10.4216 20.0123 11.5233C18.8803 12.6316 17.0629 12.6083 15.9594 11.4717C14.8624 10.3418 14.8851 8.53752 16.0103 7.43583Z" fill="#C4C4C4"/>
</svg>
